# xmcd
#
# Track frame offsets: 
#        150
#        12446
#        28776
#        41487
#        54648
#        67964
#        79070
#        95967
#        106767
#        122472
#        137212
#        147163
#        157375
#        172504
#        184801
#        199503
#        210188
#        223447
#        237984
#        249015
#        263731
#        275085
#        287978
#        300137
#
# Disc length: 4201 seconds
#
# Revision: 0
# Processed by: cddbd v1.5.2PL0 Copyright (c) Steve Scherf et al.
# Submitted via: ExactAudioCopyFreeDBPlugin 1.0
#
DISCID=57106718
DTITLE=The Statler Brothers - Sing the Classics
DYEAR=2018
DGENRE=Country
TTITLE0=Memories Are Made of This
TTITLE1=The Great Pretender
TTITLE2=Gone
TTITLE3=Naughty Lady of Shady Lane
TTITLE4=She Thinks I Still Care
TTITLE5=I'll Go to My Grave Loving You
TTITLE6=Moments to Remember
TTITLE7=Chattanoogie Show Shine Boy
TTITLE8=Making Believe
TTITLE9=Tom Dooley
TTITLE10=Love Letters in the Sand
TTITLE11=Hello Mary Lou
TTITLE12=Unchained Melody
TTITLE13=The Battle of New Orleans
TTITLE14=I Can't Stop Loving You
TTITLE15=Bye Bye Love
TTITLE16=Only You
TTITLE17=Have I Told You Lately That I Love You
TTITLE18=Oh Baby Mine (I Get So Lonely)
TTITLE19=It Only Hurts for a Little While
TTITLE20=He's Got the Whole World in His Hands
TTITLE21=Bed Of Roses
TTITLE22=Love Me Tender
TTITLE23=Goodnight, Sweetheart, Goodnight
EXTD=
EXTT0=
EXTT1=
EXTT2=
EXTT3=
EXTT4=
EXTT5=
EXTT6=
EXTT7=
EXTT8=
EXTT9=
EXTT10=
EXTT11=
EXTT12=
EXTT13=
EXTT14=
EXTT15=
EXTT16=
EXTT17=
EXTT18=
EXTT19=
EXTT20=
EXTT21=
EXTT22=
EXTT23=
PLAYORDER=
